NotoSansDisplay-CondensedBoldItalic.ufo
<glyph name="uni0191" format="2">
  <advance width="561"/>
  <unicode hex="0191"/>
  <anchor x="145" y="0" name="bottom"/>
  <anchor x="475" y="714" name="top"/>
  <anchor x="648" y="714" name="topright"/>
  <outline>
    <contour>
      <point x="160" y="-16" type="curve" smooth="yes"/>
      <point x="274" y="-16"/>
      <point x="343" y="50"/>
      <point x="367" y="165" type="curve" smooth="yes"/>
      <point x="395" y="300" type="line"/>
      <point x="525" y="300" type="line"/>
      <point x="556" y="444" type="line"/>
      <point x="426" y="444" type="line"/>
      <point x="452" y="570" type="line"/>
      <point x="594" y="570" type="line"/>
      <point x="625" y="714" type="line"/>
      <point x="316" y="714" type="line"/>
      <point x="202" y="171" type="line" smooth="yes"/>
      <point x="196" y="141"/>
      <point x="181" y="119"/>
      <point x="156" y="119" type="curve" smooth="yes"/>
      <point x="129" y="119"/>
      <point x="113" y="136"/>
      <point x="113" y="168" type="curve" smooth="yes"/>
      <point x="113" y="182"/>
      <point x="117" y="198"/>
      <point x="123" y="211" type="curve"/>
      <point x="-2" y="252" type="line"/>
      <point x="-15" y="222"/>
      <point x="-22" y="192"/>
      <point x="-22" y="160" type="curve" smooth="yes"/>
      <point x="-22" y="46"/>
      <point x="49" y="-16"/>
    </contour>
  </outline>
</glyph>
<glyph name="kturned" format="2">
  <advance width="479"/>
  <unicode hex="029E"/>
  <anchor x="141" y="-207" name="bottom"/>
  <anchor x="297" y="553" name="top"/>
  <outline>
    <contour>
      <point x="174" y="-207" type="line"/>
      <point x="335" y="-207" type="line"/>
      <point x="497" y="553" type="line"/>
      <point x="336" y="553" type="line"/>
      <point x="307" y="401" type="line"/>
      <point x="270" y="368" type="line"/>
      <point x="228" y="553" type="line"/>
      <point x="54" y="553" type="line"/>
      <point x="130" y="239" type="line"/>
      <point x="-53" y="0" type="line"/>
      <point x="121" y="0" type="line"/>
      <point x="265" y="199" type="line"/>
      <point x="267" y="199" type="line"/>
      <point x="255" y="160"/>
      <point x="245" y="124"/>
      <point x="237" y="87" type="curve" smooth="yes"/>
    </contour>
  </outline>
</glyph>
<glyph name="doublemacroncomb" format="2">
  <unicode hex="035E"/>
  <anchor x="217" y="530" name="_top"/>
  <anchor x="248" y="725" name="top"/>
  <outline>
    <contour>
      <point x="-16" y="605" type="line"/>
      <point x="482" y="605" type="line"/>
      <point x="508" y="725" type="line"/>
      <point x="10" y="725" type="line"/>
    </contour>
  </outline>
</glyph>
<glyph name="arrowdoublerightbelowcomb" format="2">
  <unicode hex="0362"/>
  <anchor x="256" y="35" name="_bottom"/>
  <anchor x="198" y="-238" name="bottom"/>
  <outline>
    <contour>
      <point x="412" y="-238" type="line"/>
      <point x="543" y="-127" type="line"/>
      <point x="413" y="-15" type="line"/>
      <point x="412" y="-89" type="line"/>
      <point x="-99" y="-89" type="line"/>
      <point x="-99" y="-165" type="line"/>
      <point x="412" y="-165" type="line"/>
    </contour>
  </outline>
</glyph>
<glyph name="uni0463" format="2">
  <advance width="495"/>
  <unicode hex="0463"/>
  <anchor x="192" y="0" name="bottom"/>
  <anchor x="328" y="644" name="top"/>
  <outline>
    <contour>
      <point x="216" y="-10" type="curve" smooth="yes"/>
      <point x="358" y="-10"/>
      <point x="455" y="68"/>
      <point x="455" y="208" type="curve" smooth="yes"/>
      <point x="455" y="307"/>
      <point x="397" y="354"/>
      <point x="294" y="354" type="curve" smooth="yes"/>
      <point x="281" y="354"/>
      <point x="268" y="353"/>
      <point x="263" y="351" type="curve"/>
      <point x="280" y="439" type="line"/>
      <point x="381" y="439" type="line"/>
      <point x="405" y="553" type="line"/>
      <point x="304" y="553" type="line"/>
      <point x="324" y="644" type="line"/>
      <point x="164" y="644" type="line"/>
      <point x="144" y="553" type="line"/>
      <point x="60" y="553" type="line"/>
      <point x="36" y="439" type="line"/>
      <point x="119" y="439" type="line"/>
      <point x="69" y="199" type="line" smooth="yes"/>
      <point x="64" y="174"/>
      <point x="61" y="149"/>
      <point x="61" y="128" type="curve" smooth="yes"/>
      <point x="61" y="43"/>
      <point x="108" y="-10"/>
    </contour>
    <contour>
      <point x="240" y="110" type="curve" smooth="yes"/>
      <point x="225" y="110"/>
      <point x="218" y="121"/>
      <point x="218" y="140" type="curve" smooth="yes"/>
      <point x="218" y="159"/>
      <point x="226" y="203"/>
      <point x="235" y="230" type="curve"/>
      <point x="243" y="232"/>
      <point x="252" y="234"/>
      <point x="261" y="234" type="curve" smooth="yes"/>
      <point x="281" y="234"/>
      <point x="289" y="221"/>
      <point x="289" y="194" type="curve" smooth="yes"/>
      <point x="289" y="169"/>
      <point x="276" y="110"/>
    </contour>
  </outline>
</glyph>
<glyph name="uni0489" format="2">
  <advance width="858"/>
  <unicode hex="0489"/>
  <outline>
    <contour>
      <point x="648" y="449" type="line"/>
      <point x="702" y="488"/>
      <point x="743" y="522"/>
      <point x="790" y="548" type="curve"/>
      <point x="736" y="602" type="line"/>
      <point x="680" y="583"/>
      <point x="629" y="557"/>
      <point x="580" y="529" type="curve"/>
      <point x="579" y="520" type="line"/>
    </contour>
    <contour>
      <point x="125" y="-63" type="line"/>
      <point x="182" y="-42"/>
      <point x="233" y="-18"/>
      <point x="281" y="11" type="curve"/>
      <point x="283" y="20" type="line"/>
      <point x="212" y="90" type="line"/>
      <point x="169" y="56"/>
      <point x="117" y="22"/>
      <point x="71" y="-6" type="curve"/>
    </contour>
    <contour>
      <point x="177" y="198" type="curve"/>
      <point x="183" y="203" type="line"/>
      <point x="183" y="303" type="line"/>
      <point x="134" y="309"/>
      <point x="74" y="318"/>
      <point x="15" y="339" type="curve"/>
      <point x="15" y="257" type="line"/>
      <point x="70" y="232"/>
      <point x="122" y="212"/>
    </contour>
    <contour>
      <point x="363" y="-188" type="curve"/>
      <point x="442" y="-188" type="line"/>
      <point x="465" y="-133"/>
      <point x="486" y="-80"/>
      <point x="501" y="-24" type="curve"/>
      <point x="496" y="-17" type="line"/>
      <point x="396" y="-17" type="line"/>
      <point x="391" y="-56"/>
      <point x="378" y="-122"/>
    </contour>
    <contour>
      <point x="696" y="-100" type="curve"/>
      <point x="750" y="-45" type="line"/>
      <point x="731" y="10"/>
      <point x="707" y="63"/>
      <point x="679" y="113" type="curve"/>
      <point x="670" y="114" type="line"/>
      <point x="600" y="43" type="line"/>
      <point x="617" y="19"/>
      <point x="658" y="-41"/>
    </contour>
    <contour>
      <point x="190" y="425" type="line"/>
      <point x="260" y="497" type="line"/>
      <point x="240" y="521"/>
      <point x="187" y="595"/>
      <point x="164" y="640" type="curve"/>
      <point x="109" y="585" type="line"/>
      <point x="132" y="526"/>
      <point x="154" y="475"/>
      <point x="181" y="427" type="curve"/>
    </contour>
    <contour>
      <point x="845" y="203" type="curve"/>
      <point x="845" y="282" type="line"/>
      <point x="792" y="308"/>
      <point x="738" y="326"/>
      <point x="684" y="342" type="curve"/>
      <point x="677" y="336" type="line"/>
      <point x="677" y="237" type="line"/>
      <point x="719" y="231"/>
      <point x="757" y="223"/>
    </contour>
    <contour>
      <point x="366" y="557" type="line"/>
      <point x="465" y="557" type="line"/>
      <point x="472" y="607"/>
      <point x="481" y="649"/>
      <point x="500" y="728" type="curve"/>
      <point x="420" y="728" type="line"/>
      <point x="394" y="675"/>
      <point x="376" y="619"/>
      <point x="361" y="564" type="curve"/>
    </contour>
  </outline>
</glyph>
<glyph name="uni1ABA" format="2">
  <unicode hex="1ABA"/>
  <anchor x="-26" y="90" name="_bottom"/>
  <anchor x="-64" y="-240" name="bottom"/>
  <outline>
    <contour>
      <point x="-177" y="-163" type="line"/>
      <point x="-68" y="-163" type="line"/>
      <point x="68" y="40" type="line"/>
      <point x="-50" y="40" type="line"/>
    </contour>
    <contour>
      <point x="-123" y="-240" type="curve" smooth="yes"/>
      <point x="-58" y="-240"/>
      <point x="-23" y="-194"/>
      <point x="-23" y="-141" type="curve" smooth="yes"/>
      <point x="-23" y="-95"/>
      <point x="-47" y="-71"/>
      <point x="-100" y="-71" type="curve" smooth="yes"/>
      <point x="-167" y="-71"/>
      <point x="-200" y="-119"/>
      <point x="-200" y="-171" type="curve" smooth="yes"/>
      <point x="-200" y="-213"/>
      <point x="-174" y="-240"/>
    </contour>
  </outline>
</glyph>
<glyph name="uni1D24" format="2">
  <advance width="467"/>
  <unicode hex="1D24"/>
  <anchor x="187" y="0" name="bottom"/>
  <anchor x="347" y="760" name="top"/>
  <outline>
    <contour>
      <point x="199" y="-10" type="curve" smooth="yes"/>
      <point x="267" y="-10"/>
      <point x="336" y="16"/>
      <point x="384" y="59" type="curve"/>
      <point x="344" y="174" type="line"/>
      <point x="296" y="139"/>
      <point x="267" y="128"/>
      <point x="231" y="128" type="curve" smooth="yes"/>
      <point x="201" y="128"/>
      <point x="182" y="146"/>
      <point x="182" y="179" type="curve" smooth="yes"/>
      <point x="182" y="221"/>
      <point x="231" y="263"/>
      <point x="338" y="306" type="curve"/>
      <point x="357" y="403" type="line"/>
      <point x="475" y="454"/>
      <point x="527" y="519"/>
      <point x="527" y="614" type="curve" smooth="yes"/>
      <point x="527" y="701"/>
      <point x="463" y="765"/>
      <point x="348" y="765" type="curve" smooth="yes"/>
      <point x="281" y="765"/>
      <point x="211" y="739"/>
      <point x="163" y="696" type="curve"/>
      <point x="203" y="581" type="line"/>
      <point x="250" y="615"/>
      <point x="280" y="627"/>
      <point x="316" y="627" type="curve" smooth="yes"/>
      <point x="345" y="627"/>
      <point x="365" y="609"/>
      <point x="365" y="576" type="curve" smooth="yes"/>
      <point x="365" y="534"/>
      <point x="318" y="493"/>
      <point x="210" y="449" type="curve"/>
      <point x="190" y="352" type="line"/>
      <point x="69" y="300"/>
      <point x="20" y="233"/>
      <point x="20" y="141" type="curve" smooth="yes"/>
      <point x="20" y="53"/>
      <point x="86" y="-10"/>
    </contour>
  </outline>
</glyph>
<glyph name="uni1D2F" format="2">
  <advance width="332"/>
  <unicode hex="1D2F"/>
  <anchor x="192.1" y="287.0" name="bottom"/>
  <anchor x="281.8" y="715.4" name="top"/>
  <anchor x="434.55" y="715.4" name="topright"/>
  <outline>
    <contour>
      <point x="42" y="469" type="line"/>
      <point x="398" y="469" type="line"/>
      <point x="414" y="548" type="line"/>
      <point x="58" y="548" type="line"/>
    </contour>
    <component base="B" xScale="0.65" yScale="0.6" xOffset="53" yOffset="287"/>
  </outline>
</glyph>
<glyph name="uni1D7A" format="2">
  <advance width="827"/>
  <unicode hex="1D7A"/>
  <anchor x="141" y="0" name="bottom_1"/>
  <anchor x="530" y="0" name="bottom_2"/>
  <anchor x="140" y="277" name="center_1"/>
  <anchor x="585" y="265" name="center_2"/>
  <anchor x="233" y="664" name="top_1"/>
  <anchor x="567" y="760" name="top_2"/>
  <anchor x="350" y="900" name="topright_1"/>
  <anchor x="884" y="760" name="topright_2"/>
  <outline>
    <contour>
      <point x="-117" y="-85" type="line"/>
      <point x="31" y="-85" type="line"/>
      <point x="890" y="760" type="line"/>
      <point x="742" y="760" type="line"/>
    </contour>
    <component base="t"/>
    <component base="h" xOffset="342"/>
  </outline>
</glyph>
<glyph name="uni1FEE" format="2">
  <advance width="422"/>
  <unicode hex="1FEE"/>
  <anchor x="266" y="530" name="_top"/>
  <outline>
    <contour>
      <point x="222" y="611" type="line"/>
      <point x="301" y="611" type="line"/>
      <point x="329" y="648"/>
      <point x="376" y="725"/>
      <point x="401" y="766" type="curve"/>
      <point x="403" y="776" type="line"/>
      <point x="275" y="776" type="line"/>
      <point x="270" y="751"/>
      <point x="235" y="654"/>
      <point x="225" y="625" type="curve"/>
    </contour>
    <contour>
      <point x="128" y="600" type="curve" smooth="yes"/>
      <point x="169" y="600"/>
      <point x="208" y="633"/>
      <point x="208" y="692" type="curve" smooth="yes"/>
      <point x="208" y="727"/>
      <point x="188" y="747"/>
      <point x="155" y="747" type="curve" smooth="yes"/>
      <point x="99" y="747"/>
      <point x="70" y="706"/>
      <point x="70" y="656" type="curve" smooth="yes"/>
      <point x="70" y="619"/>
      <point x="90" y="600"/>
    </contour>
    <contour>
      <point x="451" y="600" type="curve" smooth="yes"/>
      <point x="493" y="600"/>
      <point x="531" y="633"/>
      <point x="531" y="692" type="curve" smooth="yes"/>
      <point x="531" y="727"/>
      <point x="511" y="747"/>
      <point x="478" y="747" type="curve" smooth="yes"/>
      <point x="423" y="747"/>
      <point x="394" y="706"/>
      <point x="394" y="656" type="curve" smooth="yes"/>
      <point x="394" y="619"/>
      <point x="414" y="600"/>
    </contour>
  </outline>
</glyph>
<glyph name="uni1FFD" format="2">
  <advance width="423"/>
  <unicode hex="1FFD"/>
  <anchor x="283" y="530" name="_top"/>
  <anchor x="320" y="776" name="top"/>
  <outline>
    <contour>
      <point x="222" y="611" type="line"/>
      <point x="311" y="611" type="line"/>
      <point x="340" y="648"/>
      <point x="387" y="725"/>
      <point x="412" y="766" type="curve"/>
      <point x="414" y="776" type="line"/>
      <point x="275" y="776" type="line"/>
      <point x="270" y="751"/>
      <point x="236" y="654"/>
      <point x="225" y="625" type="curve"/>
    </contour>
  </outline>
</glyph>
<glyph name="parenleftsuperior" format="2">
  <advance width="218"/>
  <unicode hex="207D"/>
  <outline>
    <contour>
      <point x="110" y="207" type="curve"/>
      <point x="192" y="207" type="line"/>
      <point x="175" y="263"/>
      <point x="166" y="338"/>
      <point x="166" y="397" type="curve" smooth="yes"/>
      <point x="166" y="554"/>
      <point x="230" y="675"/>
      <point x="315" y="776" type="curve"/>
      <point x="224" y="776" type="line"/>
      <point x="125" y="666"/>
      <point x="74" y="549"/>
      <point x="74" y="404" type="curve" smooth="yes"/>
      <point x="74" y="336"/>
      <point x="86" y="258"/>
    </contour>
  </outline>
</glyph>
<glyph name="parenrightsuperior" format="2">
  <advance width="217"/>
  <unicode hex="207E"/>
  <outline>
    <contour>
      <point x="-2" y="207" type="curve"/>
      <point x="89" y="207" type="line"/>
      <point x="187" y="318"/>
      <point x="237" y="435"/>
      <point x="237" y="581" type="curve" smooth="yes"/>
      <point x="237" y="650"/>
      <point x="225" y="723"/>
      <point x="200" y="776" type="curve"/>
      <point x="117" y="776" type="line"/>
      <point x="134" y="721"/>
      <point x="145" y="645"/>
      <point x="145" y="584" type="curve" smooth="yes"/>
      <point x="145" y="430"/>
      <point x="83" y="309"/>
    </contour>
  </outline>
</glyph>
<glyph name="uni20A5" format="2">
  <advance width="715"/>
  <unicode hex="20A5"/>
  <anchor x="299" y="0" name="bottom"/>
  <anchor x="417" y="553" name="top"/>
  <anchor x="754" y="553" name="topright"/>
  <outline>
    <contour>
      <point x="114" y="-110" type="line"/>
      <point x="183" y="-110" type="line"/>
      <point x="591" y="666" type="line"/>
      <point x="522" y="666" type="line"/>
    </contour>
    <component base="m"/>
  </outline>
</glyph>
<glyph name="uni2DF5" format="2">
  <unicode hex="2DF5"/>
  <anchor x="59" y="553" name="_top"/>
  <anchor x="116" y="841" name="top"/>
  <anchor x="305" y="841" name="topright"/>
  <outline>
    <contour>
      <point x="2" y="616" type="curve" smooth="yes"/>
      <point x="28" y="616"/>
      <point x="55" y="625"/>
      <point x="71" y="636" type="curve"/>
      <point x="71" y="690" type="line"/>
      <point x="52" y="678"/>
      <point x="36" y="671"/>
      <point x="22" y="671" type="curve" smooth="yes"/>
      <point x="11" y="671"/>
      <point x="6" y="680"/>
      <point x="6" y="698" type="curve" smooth="yes"/>
      <point x="6" y="722"/>
      <point x="18" y="787"/>
      <point x="65" y="787" type="curve" smooth="yes"/>
      <point x="147" y="787" type="line"/>
      <point x="106" y="620" type="line"/>
      <point x="179" y="620" type="line"/>
      <point x="219" y="787" type="line"/>
      <point x="266" y="787" type="line"/>
      <point x="279" y="841" type="line"/>
      <point x="58" y="841" type="line" smooth="yes"/>
      <point x="-36" y="841"/>
      <point x="-68" y="752"/>
      <point x="-68" y="688" type="curve" smooth="yes"/>
      <point x="-68" y="644"/>
      <point x="-43" y="616"/>
    </contour>
  </outline>
</glyph>
<glyph name="uniA657" format="2">
  <advance width="708"/>
  <unicode hex="A657"/>
  <anchor x="302" y="0" name="bottom"/>
  <anchor x="370" y="553" name="top"/>
  <outline>
    <contour>
      <point x="179" y="0" type="line"/>
      <point x="348" y="0" type="line"/>
      <point x="418" y="195" type="line"/>
      <point x="495" y="195" type="line"/>
      <point x="493" y="0" type="line"/>
      <point x="653" y="0" type="line"/>
      <point x="629" y="553" type="line"/>
      <point x="432" y="553" type="line"/>
    </contour>
    <contour>
      <point x="-13" y="0" type="line"/>
      <point x="148" y="0" type="line"/>
      <point x="189" y="195" type="line"/>
      <point x="341" y="195" type="line"/>
      <point x="369" y="321" type="line"/>
      <point x="216" y="321" type="line"/>
      <point x="265" y="553" type="line"/>
      <point x="105" y="553" type="line"/>
    </contour>
    <contour>
      <point x="461" y="311" type="line"/>
      <point x="484" y="385" type="line" smooth="yes"/>
      <point x="490" y="404"/>
      <point x="497" y="425"/>
      <point x="501" y="442" type="curve"/>
      <point x="507" y="442" type="line"/>
      <point x="504" y="408"/>
      <point x="501" y="375"/>
      <point x="500" y="358" type="curve" smooth="yes"/>
      <point x="497" y="311" type="line"/>
    </contour>
  </outline>
</glyph>
<glyph name="uniA671" format="2">
  <unicode hex="A671"/>
  <outline>
    <contour>
      <point x="-379" y="596" type="line"/>
      <point x="-252" y="596" type="line"/>
      <point x="-235" y="679" type="line"/>
      <point x="416" y="679" type="line"/>
      <point x="399" y="596" type="line"/>
      <point x="526" y="596" type="line"/>
      <point x="573" y="818" type="line"/>
      <point x="-333" y="818" type="line"/>
    </contour>
    <contour>
      <point x="-558" y="-296" type="line"/>
      <point x="347" y="-296" type="line"/>
      <point x="394" y="-74" type="line"/>
      <point x="267" y="-74" type="line"/>
      <point x="250" y="-157" type="line"/>
      <point x="-401" y="-157" type="line"/>
      <point x="-384" y="-74" type="line"/>
      <point x="-511" y="-74" type="line"/>
    </contour>
  </outline>
</glyph>
<glyph name="uniA672" format="2">
  <unicode hex="A672"/>
  <outline>
    <contour>
      <point x="29" y="581" type="line"/>
      <point x="113" y="581" type="line"/>
      <point x="138" y="699" type="line"/>
      <point x="241" y="699" type="line"/>
      <point x="259" y="785" type="line"/>
      <point x="156" y="785" type="line"/>
      <point x="181" y="905" type="line"/>
      <point x="97" y="905" type="line"/>
      <point x="72" y="785" type="line"/>
      <point x="-30" y="785" type="line"/>
      <point x="-48" y="699" type="line"/>
      <point x="54" y="699" type="line"/>
    </contour>
    <contour>
      <point x="-335" y="-386" type="line"/>
      <point x="-249" y="-386" type="line"/>
      <point x="-179" y="-55" type="line"/>
      <point x="-265" y="-55" type="line"/>
    </contour>
    <contour>
      <point x="-586" y="42" type="line"/>
      <point x="-297" y="42" type="line"/>
      <point x="-278" y="128" type="line"/>
      <point x="-568" y="128" type="line"/>
    </contour>
    <contour>
      <point x="-176" y="-386" type="line"/>
      <point x="-90" y="-386" type="line"/>
      <point x="-20" y="-55" type="line"/>
      <point x="-106" y="-55" type="line"/>
    </contour>
    <contour>
      <point x="-17" y="-386" type="line"/>
      <point x="69" y="-386" type="line"/>
      <point x="140" y="-55" type="line"/>
      <point x="53" y="-55" type="line"/>
    </contour>
    <contour>
      <point x="-547" y="227" type="line"/>
      <point x="-258" y="227" type="line"/>
      <point x="-238" y="313" type="line"/>
      <point x="-528" y="313" type="line"/>
    </contour>
    <contour>
      <point x="-507" y="412" type="line"/>
      <point x="-218" y="412" type="line"/>
      <point x="-199" y="498" type="line"/>
      <point x="-489" y="498" type="line"/>
    </contour>
    <contour>
      <point x="212" y="42" type="line"/>
      <point x="501" y="42" type="line"/>
      <point x="520" y="128" type="line"/>
      <point x="230" y="128" type="line"/>
    </contour>
    <contour>
      <point x="251" y="227" type="line"/>
      <point x="540" y="227" type="line"/>
      <point x="560" y="313" type="line"/>
      <point x="270" y="313" type="line"/>
    </contour>
    <contour>
      <point x="291" y="412" type="line"/>
      <point x="580" y="412" type="line"/>
      <point x="599" y="498" type="line"/>
      <point x="309" y="498" type="line"/>
    </contour>
  </outline>
</glyph>
<glyph name="uniA685" format="2">
  <advance width="904"/>
  <unicode hex="A685"/>
  <anchor x="131" y="0" name="bottom_1"/>
  <anchor x="612" y="0" name="bottom_2"/>
  <anchor x="239" y="553" name="top_1"/>
  <anchor x="729" y="553" name="top_2"/>
  <outline>
    <contour>
      <point x="248" y="225" type="line"/>
      <point x="480" y="225" type="line"/>
      <point x="504" y="341" type="line"/>
      <point x="273" y="341" type="line"/>
    </contour>
    <component base="afii10073"/>
    <component base="afii10076" xOffset="421"/>
  </outline>
</glyph>
<glyph name="uniA69A" format="2">
  <advance width="565"/>
  <unicode hex="A69A"/>
  <anchor x="240" y="0" name="bottom"/>
  <anchor x="391" y="714" name="top"/>
  <outline>
    <contour>
      <point x="195" y="22" type="line"/>
      <point x="282" y="22" type="line"/>
      <point x="426" y="699" type="line"/>
      <point x="339" y="699" type="line"/>
    </contour>
    <component base="uni04E8"/>
  </outline>
</glyph>
<glyph name="uniA69E" format="2">
  <unicode hex="A69E"/>
  <outline>
    <contour>
      <point x="-83" y="114" type="line"/>
      <point x="22" y="114" type="line"/>
      <point x="52" y="263" type="line"/>
      <point x="181" y="274"/>
      <point x="256" y="343"/>
      <point x="256" y="474" type="curve" smooth="yes"/>
      <point x="256" y="558"/>
      <point x="213" y="612"/>
      <point x="130" y="626" type="curve"/>
      <point x="156" y="754" type="line"/>
      <point x="51" y="754" type="line"/>
      <point x="25" y="626" type="line"/>
      <point x="-103" y="614"/>
      <point x="-178" y="547"/>
      <point x="-178" y="416" type="curve" smooth="yes"/>
      <point x="-178" y="331"/>
      <point x="-135" y="277"/>
      <point x="-53" y="263" type="curve"/>
    </contour>
    <contour>
      <point x="-32" y="349" type="line"/>
      <point x="-57" y="355"/>
      <point x="-69" y="384"/>
      <point x="-69" y="420" type="curve" smooth="yes"/>
      <point x="-69" y="482"/>
      <point x="-40" y="535"/>
      <point x="5" y="540" type="curve"/>
    </contour>
    <contour>
      <point x="73" y="349" type="curve"/>
      <point x="110" y="540" type="line"/>
      <point x="134" y="535"/>
      <point x="148" y="506"/>
      <point x="148" y="470" type="curve" smooth="yes"/>
      <point x="148" y="410"/>
      <point x="118" y="355"/>
    </contour>
  </outline>
</glyph>
<glyph name="uniA73B" format="2">
  <advance width="703"/>
  <unicode hex="A73B"/>
  <anchor x="300" y="0" name="bottom"/>
  <anchor x="413" y="553" name="top"/>
  <outline>
    <contour>
      <point x="312" y="255" type="line"/>
      <point x="544" y="255" type="line"/>
      <point x="564" y="351" type="line"/>
      <point x="333" y="351" type="line"/>
    </contour>
    <component base="uniA739"/>
  </outline>
</glyph>
<glyph name="uniA741" format="2">
  <advance width="484"/>
  <unicode hex="A741"/>
  <anchor x="186" y="0" name="bottom"/>
  <anchor x="347" y="760" name="top"/>
  <anchor x="576" y="760" name="topright"/>
  <outline>
    <contour>
      <point x="64" y="565" type="line" smooth="yes"/>
      <point x="342" y="565" type="line" smooth="yes"/>
      <point x="367" y="679" type="line" smooth="yes"/>
      <point x="89" y="679" type="line" smooth="yes"/>
    </contour>
    <component base="k"/>
  </outline>
</glyph>
<glyph name="uniA748" format="2">
  <advance width="395"/>
  <unicode hex="A748"/>
  <anchor x="148" y="0" name="bottom"/>
  <anchor x="156" y="357" name="center"/>
  <anchor x="224" y="714" name="top"/>
  <anchor x="401" y="714" name="topright"/>
  <outline>
    <contour>
      <point x="58" y="527" type="line"/>
      <point x="364" y="527" type="line"/>
      <point x="386" y="632" type="line"/>
      <point x="80" y="632" type="line"/>
    </contour>
    <component base="L"/>
  </outline>
</glyph>
<glyph name="uniA74B" format="2">
  <advance width="472"/>
  <unicode hex="A74B"/>
  <anchor x="177" y="0" name="bottom"/>
  <anchor x="236" y="277" name="center"/>
  <anchor x="295" y="553" name="top"/>
  <anchor x="511" y="553" name="topright"/>
  <outline>
    <contour>
      <point x="-11" y="222" type="line"/>
      <point x="468" y="222" type="line"/>
      <point x="493" y="338" type="line"/>
      <point x="14" y="338" type="line"/>
    </contour>
    <component base="o"/>
  </outline>
</glyph>
<glyph name="uniA750" format="2">
  <advance width="476"/>
  <unicode hex="A750"/>
  <anchor x="183" y="0" name="bottom"/>
  <anchor x="331" y="714" name="top"/>
  <anchor x="552" y="714" name="topright"/>
  <outline>
    <contour>
      <point x="-42" y="63" type="line"/>
      <point x="264" y="63" type="line"/>
      <point x="286" y="168" type="line"/>
      <point x="-20" y="168" type="line"/>
    </contour>
    <component base="P"/>
  </outline>
</glyph>
<glyph name="uniA75C" format="2">
  <advance width="667"/>
  <unicode hex="A75C"/>
  <outline>
    <contour>
      <point x="16" y="140" type="line"/>
      <point x="610" y="140" type="line"/>
      <point x="642" y="286" type="line"/>
      <point x="259" y="286" type="line"/>
      <point x="258" y="289" type="line"/>
      <point x="298" y="321" type="line" smooth="yes"/>
      <point x="423" y="420"/>
      <point x="454" y="484"/>
      <point x="454" y="573" type="curve" smooth="yes"/>
      <point x="454" y="662"/>
      <point x="390" y="724"/>
      <point x="298" y="724" type="curve" smooth="yes"/>
      <point x="221" y="724"/>
      <point x="153" y="690"/>
      <point x="86" y="609" type="curve"/>
      <point x="152" y="512" type="line"/>
      <point x="186" y="546"/>
      <point x="220" y="578"/>
      <point x="256" y="578" type="curve" smooth="yes"/>
      <point x="276" y="578"/>
      <point x="283" y="562"/>
      <point x="283" y="537" type="curve" smooth="yes"/>
      <point x="283" y="489"/>
      <point x="258" y="457"/>
      <point x="159" y="366" type="curve" smooth="yes"/>
      <point x="41" y="256" type="line"/>
    </contour>
    <contour>
      <point x="343" y="0" type="line"/>
      <point x="503" y="0" type="line"/>
      <point x="586" y="393" type="line"/>
      <point x="427" y="393" type="line"/>
    </contour>
  </outline>
</glyph>
<glyph name="uniA75F" format="2">
  <advance width="453"/>
  <unicode hex="A75F"/>
  <anchor x="168" y="0" name="bottom"/>
  <anchor x="286" y="553" name="top"/>
  <anchor x="492" y="553" name="topright"/>
  <outline>
    <contour>
      <point x="-8" y="-90" type="line"/>
      <point x="41" y="-90" type="line"/>
      <point x="337" y="624" type="line"/>
      <point x="287" y="624" type="line"/>
    </contour>
    <component base="v"/>
  </outline>
</glyph>
<glyph name="uniA764" format="2">
  <advance width="475"/>
  <unicode hex="A764"/>
  <outline>
    <contour>
      <point x="-5" y="0" type="line"/>
      <point x="162" y="0" type="line"/>
      <point x="182" y="93" type="line"/>
      <point x="220" y="93" type="line" smooth="yes"/>
      <point x="404" y="93"/>
      <point x="466" y="213"/>
      <point x="466" y="350" type="curve" smooth="yes"/>
      <point x="466" y="452"/>
      <point x="412" y="520"/>
      <point x="279" y="520" type="curve" smooth="yes"/>
      <point x="272" y="520" type="line"/>
      <point x="313" y="714" type="line"/>
      <point x="146" y="714" type="line"/>
    </contour>
    <contour>
      <point x="212" y="237" type="line"/>
      <point x="241" y="376" type="line"/>
      <point x="249" y="376" type="line" smooth="yes"/>
      <point x="279" y="376"/>
      <point x="294" y="366"/>
      <point x="294" y="328" type="curve" smooth="yes"/>
      <point x="294" y="246"/>
      <point x="274" y="237"/>
      <point x="224" y="237" type="curve" smooth="yes"/>
    </contour>
    <contour>
      <point x="65" y="564" type="line"/>
      <point x="348" y="564" type="line"/>
      <point x="370" y="669" type="line"/>
      <point x="87" y="669" type="line"/>
    </contour>
  </outline>
</glyph>
<glyph name="uniA771" format="2">
  <advance width="694"/>
  <unicode hex="A771"/>
  <anchor x="176" y="0" name="bottom"/>
  <anchor x="228" y="265" name="center"/>
  <anchor x="337" y="760" name="top"/>
  <anchor x="546" y="760" name="topright"/>
  <outline>
    <contour>
      <point x="330" y="-157" type="line"/>
      <point x="439" y="-157" type="line"/>
      <point x="661" y="298" type="line"/>
      <point x="553" y="298" type="line"/>
    </contour>
    <contour>
      <point x="372" y="0" type="line"/>
      <point x="633" y="0" type="line"/>
      <point x="661" y="135" type="line"/>
      <point x="400" y="135" type="line"/>
    </contour>
    <component base="d"/>
  </outline>
</glyph>
<glyph name="uniA772" format="2">
  <advance width="459"/>
  <unicode hex="A772"/>
  <anchor x="65" y="0" name="bottom"/>
  <anchor x="124" y="277" name="center"/>
  <anchor x="227" y="760" name="top"/>
  <anchor x="331" y="760" name="topright"/>
  <outline>
    <contour>
      <point x="95" y="-157" type="line"/>
      <point x="204" y="-157" type="line"/>
      <point x="426" y="298" type="line"/>
      <point x="318" y="298" type="line"/>
    </contour>
    <contour>
      <point x="137" y="0" type="line"/>
      <point x="398" y="0" type="line"/>
      <point x="426" y="135" type="line"/>
      <point x="165" y="135" type="line"/>
    </contour>
    <component base="l"/>
  </outline>
</glyph>
<glyph name="uniA774" format="2">
  <advance width="694"/>
  <unicode hex="A774"/>
  <anchor x="183" y="0" name="bottom"/>
  <anchor x="301" y="553" name="top"/>
  <anchor x="523" y="553" name="topright"/>
  <outline>
    <contour>
      <point x="330" y="-157" type="line"/>
      <point x="439" y="-157" type="line"/>
      <point x="661" y="298" type="line"/>
      <point x="553" y="298" type="line"/>
    </contour>
    <contour>
      <point x="372" y="0" type="line"/>
      <point x="633" y="0" type="line"/>
      <point x="661" y="135" type="line"/>
      <point x="400" y="135" type="line"/>
    </contour>
    <component base="n"/>
  </outline>
</glyph>
<glyph name="uniA790" format="2">
  <advance width="596"/>
  <unicode hex="A790"/>
  <anchor x="244" y="0" name="bottom"/>
  <anchor x="385" y="714" name="top"/>
  <anchor x="673" y="714" name="topright"/>
  <outline>
    <contour>
      <point x="364" y="-222" type="line"/>
      <point x="526" y="-222" type="line"/>
      <point x="605" y="146" type="line"/>
      <point x="521" y="146" type="line"/>
      <point x="411" y="0" type="line"/>
    </contour>
    <component base="N"/>
  </outline>
</glyph>
<glyph name="uniA791" format="2">
  <advance width="525"/>
  <unicode hex="A791"/>
  <anchor x="183" y="0" name="bottom"/>
  <anchor x="301" y="553" name="top"/>
  <anchor x="523" y="553" name="topright"/>
  <outline>
    <contour>
      <point x="248" y="-203" type="line"/>
      <point x="403" y="-203" type="line"/>
      <point x="475" y="135" type="line"/>
      <point x="413" y="135" type="line"/>
      <point x="291" y="0" type="line"/>
    </contour>
    <component base="n"/>
  </outline>
</glyph>
<glyph name="uniA799" format="2">
  <advance width="306"/>
  <unicode hex="A799"/>
  <anchor x="-35" y="-240" name="bottom"/>
  <anchor x="299" y="765" name="top"/>
  <anchor x="433" y="765" name="topright"/>
  <outline>
    <contour>
      <point x="-9" y="180" type="line"/>
      <point x="278" y="180" type="line"/>
      <point x="306" y="315" type="line"/>
      <point x="19" y="315" type="line"/>
    </contour>
    <component base="f"/>
  </outline>
</glyph>
<glyph name="uniA7A1" format="2">
  <advance width="487"/>
  <unicode hex="A7A1"/>
  <anchor x="130" y="-240" name="bottom"/>
  <anchor x="299" y="553" name="top"/>
  <anchor x="519" y="553" name="topright"/>
  <outline>
    <contour>
      <point x="-16" y="181" type="line"/>
      <point x="487" y="270" type="line"/>
      <point x="509" y="376" type="line"/>
      <point x="6" y="287" type="line"/>
    </contour>
    <component base="g"/>
  </outline>
</glyph>
<glyph name="uniA7AE" format="2">
  <advance width="493"/>
  <unicode hex="A7AE"/>
  <anchor x="188" y="0" name="bottom"/>
  <anchor x="340" y="714" name="top"/>
  <outline>
    <contour>
      <point x="562" y="714" type="line"/>
      <point x="117" y="714" type="line"/>
      <point x="98" y="623" type="line"/>
      <point x="227" y="588" type="line"/>
      <point x="129" y="126" type="line"/>
      <point x="-16" y="91" type="line"/>
      <point x="-35" y="0" type="line"/>
      <point x="410" y="0" type="line"/>
      <point x="429" y="91" type="line"/>
      <point x="299" y="126" type="line"/>
      <point x="397" y="588" type="line"/>
      <point x="543" y="623" type="line"/>
    </contour>
  </outline>
</glyph>
<glyph name="uniA7C8" format="2">
  <advance width="480"/>
  <unicode hex="A7C8"/>
  <anchor x="176" y="0" name="bottom"/>
  <anchor x="228" y="265" name="center"/>
  <anchor x="337" y="760" name="top"/>
  <anchor x="546" y="760" name="topright"/>
  <outline>
    <contour>
      <point x="115" y="233" type="line"/>
      <point x="340" y="233" type="line"/>
      <point x="358" y="318" type="line"/>
      <point x="133" y="318" type="line"/>
    </contour>
    <component base="d"/>
  </outline>
</glyph>
<glyph name="uniA7C9" format="2">
  <advance width="429"/>
  <unicode hex="A7C9"/>
  <anchor x="160" y="0" name="bottom"/>
  <anchor x="311" y="714" name="top"/>
  <anchor x="505" y="714" name="topright"/>
  <outline>
    <contour>
      <point x="19" y="325" type="line"/>
      <point x="436" y="325" type="line"/>
      <point x="454" y="410" type="line"/>
      <point x="37" y="410" type="line"/>
    </contour>
    <component base="S"/>
  </outline>
</glyph>
<glyph name="uniA7CA" format="2">
  <advance width="381"/>
  <unicode hex="A7CA"/>
  <anchor x="132" y="0" name="bottom"/>
  <anchor x="250" y="553" name="top"/>
  <anchor x="410" y="553" name="topright"/>
  <outline>
    <contour>
      <point x="8" y="225" type="line"/>
      <point x="369" y="225" type="line"/>
      <point x="387" y="310" type="line"/>
      <point x="26" y="310" type="line"/>
    </contour>
    <component base="s"/>
  </outline>
</glyph>
<glyph name="uniA7FA" format="2">
  <advance width="743"/>
  <unicode hex="A7FA"/>
  <anchor x="316" y="0" name="bottom"/>
  <anchor x="433" y="553" name="top"/>
  <outline>
    <contour>
      <point x="-5" y="0" type="line"/>
      <point x="634" y="0" type="line"/>
      <point x="751" y="553" type="line"/>
      <point x="590" y="553" type="line"/>
      <point x="502" y="136" type="line"/>
      <point x="425" y="136" type="line"/>
      <point x="513" y="553" type="line"/>
      <point x="352" y="553" type="line"/>
      <point x="264" y="136" type="line"/>
      <point x="185" y="136" type="line"/>
      <point x="273" y="553" type="line"/>
      <point x="112" y="553" type="line"/>
    </contour>
  </outline>
</glyph>
<glyph name="uniAB41" format="2">
  <advance width="717"/>
  <unicode hex="AB41"/>
  <anchor x="421" y="553" name="bottom"/>
  <anchor x="302" y="-10" name="top"/>
  <outline>
    <contour>
      <point x="324" y="-64" type="line"/>
      <point x="670" y="574" type="line"/>
      <point x="618" y="602" type="line"/>
      <point x="271" y="-36" type="line"/>
    </contour>
    <component base="oe" xScale="-1" yScale="-1" xOffset="719" yOffset="553"/>
  </outline>
</glyph>
<glyph name="uniFE20" format="2">
  <unicode hex="FE20"/>
  <outline>
    <contour>
      <point x="-226" y="587" type="curve"/>
      <point x="-124" y="587" type="line"/>
      <point x="-84" y="650"/>
      <point x="-18" y="678"/>
      <point x="93" y="678" type="curve"/>
      <point x="93" y="789" type="line"/>
      <point x="-72" y="789"/>
      <point x="-175" y="723"/>
    </contour>
  </outline>
</glyph>
<glyph name="uniFE21" format="2">
  <unicode hex="FE21"/>
  <outline>
    <contour>
      <point x="309" y="586" type="curve"/>
      <point x="411" y="586" type="line"/>
      <point x="379" y="721"/>
      <point x="271" y="788"/>
      <point x="86" y="788" type="curve"/>
      <point x="86" y="677" type="line"/>
      <point x="200" y="677"/>
      <point x="272" y="651"/>
    </contour>
  </outline>
</glyph>
<glyph name="uniFE22" format="2">
  <unicode hex="FE22"/>
  <outline>
    <contour>
      <point x="-239" y="607" type="curve"/>
      <point x="-158" y="607" type="line"/>
      <point x="-148" y="648"/>
      <point x="-121" y="657"/>
      <point x="-91" y="657" type="curve" smooth="yes"/>
      <point x="-40" y="657"/>
      <point x="14" y="648"/>
      <point x="81" y="631" type="curve"/>
      <point x="82" y="748" type="line"/>
      <point x="29" y="762"/>
      <point x="-29" y="771"/>
      <point x="-99" y="771" type="curve" smooth="yes"/>
      <point x="-177" y="771"/>
      <point x="-234" y="717"/>
    </contour>
  </outline>
</glyph>
<glyph name="combiningconjoiningmacron" format="2">
  <unicode hex="FE26"/>
  <outline>
    <contour>
      <point x="-204" y="606" type="line"/>
      <point x="350" y="606" type="line"/>
      <point x="374" y="721" type="line"/>
      <point x="-180" y="721" type="line"/>
    </contour>
  </outline>
</glyph>
<glyph name="uniFE2E" format="2">
  <unicode hex="FE2E"/>
  <outline>
    <contour>
      <point x="0" y="559" type="curve" smooth="yes"/>
      <point x="36" y="559"/>
      <point x="60" y="570"/>
      <point x="65" y="601" type="curve"/>
      <point x="220" y="601" type="line"/>
      <point x="221" y="716" type="line"/>
      <point x="16" y="716" type="line" smooth="yes"/>
      <point x="-43" y="716"/>
      <point x="-65" y="683"/>
      <point x="-65" y="634" type="curve" smooth="yes"/>
      <point x="-65" y="598"/>
      <point x="-43" y="559"/>
    </contour>
  </outline>
</glyph>
<glyph name="uniFE2F" format="2">
  <unicode hex="FE2F"/>
  <outline>
    <contour>
      <point x="-52" y="601" type="line"/>
      <point x="153" y="601" type="line" smooth="yes"/>
      <point x="221" y="601"/>
      <point x="235" y="644"/>
      <point x="235" y="686" type="curve" smooth="yes"/>
      <point x="235" y="730"/>
      <point x="214" y="758"/>
      <point x="168" y="758" type="curve" smooth="yes"/>
      <point x="135" y="758"/>
      <point x="108" y="742"/>
      <point x="105" y="716" type="curve"/>
      <point x="-52" y="716" type="line"/>
    </contour>
  </outline>
</glyph>
<glyph name="hbar.sc" format="2">
  <advance width="505"/>
  <anchor x="193" y="0" name="bottom"/>
  <anchor x="319" y="589" name="top"/>
  <anchor x="317" y="295" name="center"/>
  <anchor x="550" y="589" name="topright"/>
  <outline>
    <contour>
      <point x="46" y="428" type="line"/>
      <point x="539" y="428" type="line"/>
      <point x="561" y="534" type="line"/>
      <point x="69" y="534" type="line"/>
    </contour>
    <component base="h.sc"/>
  </outline>
</glyph>
<glyph name="one.osf" format="2">
  <advance width="420"/>
  <outline>
    <contour>
      <point x="127" y="0" type="line"/>
      <point x="295" y="0" type="line"/>
      <point x="415" y="562" type="line"/>
      <point x="265" y="562" type="line"/>
      <point x="5" y="335" type="line"/>
      <point x="86" y="238" type="line"/>
      <point x="161" y="305" type="line" smooth="yes"/>
      <point x="177" y="320"/>
      <point x="192" y="336"/>
      <point x="204" y="351" type="curve"/>
      <point x="195" y="312"/>
      <point x="184" y="271"/>
      <point x="175" y="225" type="curve" smooth="yes"/>
    </contour>
  </outline>
</glyph>
